<?xml version="1.0" encoding="utf-8"?>
<!-- Generator: Adobe Illustrator 28.0.0, SVG Export Plug-In . SVG Version: 6.00 Build 0)  -->
<svg version="1.1" id="Слой_1" xmlns="http://www.w3.org/2000/svg" xmlns:xlink="http://www.w3.org/1999/xlink" x="0px" y="0px"
	 viewBox="0 0 1000 736.7207642" enable-background="new 0 0 1000 736.7207642" xml:space="preserve">
<g>
	<rect y="178.6038055" fill="#FF3495" width="149.841507" height="149.841507"/>
	<path d="M583.0911255,586.8792114h407.069458v149.8415527h-407.069458V586.8792114z M766.5719604,244.8909607
		c46.1761475,0,83.5865479,37.4103699,83.5865479,83.5865173c0,46.1512756-37.4104004,83.5866699-83.5865479,83.5866699h-183.480835
		v149.8414917h183.480835c99.2700195,0,184.2802124-62.2841187,217.944519-149.8414917
		C994.5309448,386.0915527,1000,357.9214172,1000,328.477478c0-128.7138062-104.7140503-233.4280243-233.4280396-233.4280243
		S533.1439819,199.7636719,533.1439819,328.477478h149.8414917
		C682.9854736,282.3013306,720.395874,244.8909607,766.5719604,244.8909607z"/>
	<path d="M324.6895142,586.8792114h233.4280396v149.8415527H408.2760315
		c-128.9139404,0-233.428009-104.5145874-233.428009-233.4281921V0h149.8414917v178.6359711h174.815094v149.841507h-174.815094
		V586.8792114z"/>
</g>
</svg>
